# xmcd
#
# Track frame offsets: 
#        150
#        14475
#        27925
#        41075
#        53000
#        64812
#        79237
#        93887
#        108837
#        119925
#        134300
#        148637
#        160687
#        173075
#        185187
#        200200
#        214337
#        226950
#        242512
#        256762
#        271087
#        284400
#        295912
#        309412
#
# Disc length: 4286 seconds
#
# Revision: 0
# Processed by: cddbd v1.5.1PL2 Copyright (c) Steve Scherf et al.
# Submitted via: ExactAudioCopy v0.95a5
#
DISCID=6410bc18
DTITLE=Various Artist - Harps, Jugs, Washboards and Kazoos (1926-1940)
DYEAR=1994
DGENRE=Blues
TTITLE0=Five Harmaniacs - Harmaniac Blues
TTITLE1=Five Harmaniacs - Sadie Green Vamp Of New Orleans (Take 1)
TTITLE2=Five Harmaniacs - Sadie Green Vamp Of New Orleans (Take 2)
TTITLE3=Five Harmaniacs - Coney Island Washboard (Take 1)
TTITLE4=Five Harmaniacs - Coney Island Washboard (Take 2)
TTITLE5=Five Harmaniacs - Carolina Bound
TTITLE6=Five Harmaniacs - Rippin' It Off
TTITLE7=Five Harmaniacs - What Did Romie-O-Juliet (When He Climbed Her
TTITLE7=Balcony)
TTITLE8=Five Harmaniacs - What Did Romie-O-Juliet (When He Climbed Her
TTITLE8=Balcony)
TTITLE9=Five Harmaniacs - What Makes My Baby Cry? (Take 1)
TTITLE10=Five Harmaniacs - What Makes My Baby Cry? (Take 2)
TTITLE11=Five Harmaniacs - It Takes A Good Woman (To Keep A Good Man A
TTITLE11=t Home) (Take 1)
TTITLE12=Five Harmaniacs - It Takes A Good Woman (To Keep A Good Man A
TTITLE12=t Home) (Take 2)
TTITLE13=Five Harmaniacs - Sleepy Blues
TTITLE14=Salty Dog Four-The Red Devils - West Coast Stomp
TTITLE15=Salty Dog Four-The Red Devils - Ballin' The Jack
TTITLE16=Salty Dog Four-The Red Devils - Dinah
TTITLE17=Salty Dog Four-The Red Devils - Tiger Rag
TTITLE18=Scorpion Washboard Band - Dinah
TTITLE19=Scorpion Washboard Band - Tiger Rag
TTITLE20=Rhythm Willie And His Gang - New Block And Tackle Blues
TTITLE21=Rhythm Willie And His Gang - Breathtakin' Blues
TTITLE22=Rhythm Willie And His Gang - Bedroom Stomp
TTITLE23=Rhythm Willie And His Gang - Boarding House Blues
EXTD=
EXTT0=
EXTT1=
EXTT2=
EXTT3=
EXTT4=
EXTT5=
EXTT6=
EXTT7=
EXTT8=
EXTT9=
EXTT10=
EXTT11=
EXTT12=
EXTT13=
EXTT14=
EXTT15=
EXTT16=
EXTT17=
EXTT18=
EXTT19=
EXTT20=
EXTT21=
EXTT22=
EXTT23=
PLAYORDER=
